<svg width="1496" height="1496" viewBox="0 0 1496 1496" fill="none" xmlns="http://www.w3.org/2000/svg">
<path d="M863.277 1022.1H629.964C622.119 1022.1 617.181 1030.55 621.033 1037.39L643.599 1064.63H849.636L872.203 1037.38C876.052 1030.55 871.117 1022.1 863.277 1022.1Z" fill="#383533"/>
<path d="M930.941 1164C930.941 1150.01 923.361 1137.79 912.081 1131.22L911.837 1131.09L912.081 1130.88C883.204 1115.01 861.561 1095 849.063 1064.63H746.616H644.169C631.669 1095 610.028 1115.01 581.15 1130.88L581.393 1131.09L581.15 1131.22C569.872 1137.79 562.291 1150.01 562.291 1164C562.291 1184.93 579.257 1201.89 600.189 1201.89H895.812V1201.75C915.445 1200.33 930.941 1183.99 930.941 1164Z" fill="#44403D"/>
<path d="M895.81 1201.89H600.189C593.249 1201.89 586.745 1203.76 581.15 1207.02C569.872 1213.58 562.291 1225.8 562.291 1239.79H600.189H638.085H857.914H895.81H933.709C933.709 1218.86 916.744 1201.89 895.81 1201.89Z" fill="#383533"/>
<path d="M748 1239.79H562.291V1277.69H933.709V1239.79H748Z" fill="#44403D"/>
<path d="M842.856 1022.1C814.164 957.169 797.2 883.177 794.5 807.289C795.958 795.276 806.173 785.964 818.58 785.964H794.076H699.156H674.648C687.056 785.964 697.269 795.276 698.728 807.289C695.985 883.78 678.608 956.489 649.236 1022.1H842.856Z" fill="#44403D"/>
<path d="M581.817 1162.6C581.817 1149.97 588.813 1138.97 599.136 1133.27C584.319 1133.83 572.473 1145.99 572.473 1160.94C572.473 1173.85 581.305 1184.67 593.248 1187.76C586.254 1181.62 581.817 1172.63 581.817 1162.6Z" fill="#565656"/>
<path d="M849.475 733.004H644.732C630.107 733.004 618.25 744.859 618.25 759.484C618.25 774.035 629.989 785.833 644.512 785.953V785.964H848.5C850.477 785.964 852.4 785.729 854.253 785.32C866.109 782.689 874.978 772.129 874.978 759.484C874.978 746.839 866.88 733.004 849.475 733.004Z" fill="#383533"/>
<path d="M838.552 695.396H654.677C644.203 695.396 635.711 703.887 635.711 714.361C635.711 724.836 644.203 733.327 654.677 733.327H838.552V733.241C839.451 733.168 840.336 733.055 841.195 732.865C849.685 730.981 856.037 723.419 856.037 714.361C856.037 705.304 849.756 695.396 838.552 695.396Z" fill="#44403D"/>
<path d="M789.648 246.324C789.648 261.968 776.967 274.648 761.324 274.648C745.681 274.648 733 261.968 733 246.324C733 230.681 745.681 218 761.324 218C776.967 218 789.648 230.681 789.648 246.324Z" fill="#44403D"/>
<path d="M800.5 532C892 432.897 764.385 266 764.385 266C764.385 266 599 436.9 599 515.603C599 560.536 619.816 600.588 652.308 626.707V626.747C652.485 626.864 652.652 626.995 652.828 627.115C653.979 628.032 655.124 628.96 656.304 629.843C664.035 636.725 668.923 647.012 668.923 658.107V695.448H814.083V658.107C814.083 646.385 819.344 635.935 827.845 629.149C862.119 603.125 800.5 578.353 800.5 532Z" fill="#44403D"/>
<path d="M819.196 674.848H674.037C668.124 674.848 663.327 670.051 663.327 664.137C663.327 658.223 668.124 653.427 674.037 653.427H819.196C825.111 653.427 829.908 658.223 829.908 664.137C829.908 670.051 825.111 674.848 819.196 674.848Z" fill="#383533"/>
<path d="M839.511 623.157C875.205 591.479 898 541.365 898 484.941C898 473.406 877.785 441.232 874 427C873.778 427.849 843.422 629.733 674 655C714.26 655 779.655 655 825.343 655C826.142 642.131 831.372 630.749 839.511 623.157Z" fill="#3F3B38"/>
<path d="M776.672 223C779.493 227.403 781.127 232.636 781.127 238.252C781.127 253.889 768.451 266.565 752.813 266.565C747.383 266.565 742.309 265.036 738 262.384C743.032 270.24 751.836 275.447 761.859 275.447C777.497 275.447 790.173 262.771 790.173 247.133C790.173 236.927 784.772 227.983 776.672 223Z" fill="#383533"/>
<path d="M736.86 245.773C736.86 231.969 748.051 220.779 761.856 220.779C769.923 220.779 777.097 224.603 781.668 230.537C777.352 223.044 769.261 218 759.995 218C746.191 218 735 229.191 735 242.995C735 248.729 736.933 254.012 740.183 258.231C738.069 254.563 736.86 250.309 736.86 245.773Z" fill="#565656"/>
<path d="M784.66 307.006C769 280.812 757.345 280.812 757.345 280.812C757.345 280.812 712.259 328.687 675.671 375.736C703.374 345.261 744.772 323.832 784.66 307.006Z" fill="#565656"/>
<path d="M632.868 760.971C632.868 751.964 637.857 744.128 645.216 740.056C634.652 740.46 626.205 749.128 626.205 759.791C626.205 768.995 632.504 776.707 641.019 778.911C636.032 774.532 632.868 768.128 632.868 760.971Z" fill="#565656"/>
</svg>
