<svg width="1496" height="1496" viewBox="0 0 1496 1496" fill="none" xmlns="http://www.w3.org/2000/svg">
<path d="M862.243 1083.94H633.484C627.745 1083.94 624.132 1090.12 626.951 1095.12L643.46 1115.05H852.263L868.773 1095.11C871.589 1090.12 867.979 1083.94 862.243 1083.94Z" fill="#383533"/>
<path d="M911.995 1226.21H583.728C578.651 1226.21 573.892 1227.58 569.8 1229.96C561.547 1234.76 556 1243.7 556 1253.94H583.728H611.455H884.268H911.995H939.723C939.723 1238.63 927.309 1226.21 911.995 1226.21Z" fill="#383533"/>
<path d="M802.227 1253.94H556V1281.67H939.723V1253.94H802.227Z" fill="#44403D"/>
<path d="M906.975 1161.32C900.048 1157.22 893.356 1152.73 886.94 1147.88C880.543 1143.04 874.42 1137.83 868.609 1132.3C865.631 1129.47 862.735 1126.55 859.925 1123.55C858.833 1122.38 852.552 1115.24 852.552 1115.24H748.875H747.861H746.848H643.171C643.171 1115.24 636.889 1122.38 635.797 1123.55C632.988 1126.55 630.092 1129.47 627.113 1132.3C621.303 1137.83 615.18 1143.04 608.783 1147.88C602.367 1152.73 595.675 1157.22 588.748 1161.32C573.711 1170.21 556 1178.25 556 1198.49C556 1213.8 568.415 1226.21 583.728 1226.21H746.848H747.861H748.875H911.995C927.308 1226.21 939.723 1213.8 939.723 1198.49C939.723 1178.25 922.012 1170.21 906.975 1161.32Z" fill="#44403D"/>
<path d="M570.497 1197.46C570.497 1188.22 575.616 1180.18 583.167 1176C572.328 1176.41 563.66 1185.31 563.66 1196.25C563.66 1205.69 570.123 1213.61 578.859 1215.87C573.743 1211.38 570.497 1204.81 570.497 1197.46Z" fill="#565656"/>
<path d="M839.615 750.829H655.737C645.037 750.829 636.364 759.503 636.364 770.203C636.364 780.848 644.952 789.481 655.577 789.569V789.577H838.901C840.349 789.577 841.755 789.405 843.112 789.105C851.784 787.18 858.275 779.456 858.275 770.203C858.275 760.952 852.349 750.829 839.615 750.829Z" fill="#383533"/>
<path d="M647.136 771.291C647.136 764.701 650.785 758.969 656.169 755.989C648.441 756.285 642.261 762.627 642.261 770.428C642.261 777.161 646.869 782.804 653.099 784.417C649.451 781.213 647.136 776.528 647.136 771.291Z" fill="#565656"/>
<path d="M827.917 723.315H663.108C655.444 723.315 649.232 729.527 649.232 737.191C649.232 744.853 655.444 751.067 663.108 751.067H827.917V751.003C828.575 750.951 829.223 750.867 829.852 750.728C836.063 749.349 840.711 743.817 840.711 737.191C840.711 730.564 836.115 723.315 827.917 723.315Z" fill="#44403D"/>
<path d="M643.46 1084.27H852.263C825.444 1023.58 808.103 954.741 802.059 884.064C801.727 878.141 801.515 872.188 801.515 866.183C801.515 839.783 804.731 814.136 810.749 789.592H740.344H734.488H686.151C692.169 814.136 695.385 839.783 695.385 866.183C695.385 872.417 695.164 878.599 694.809 884.745C688.593 955.391 670.848 1023.1 643.46 1084.27Z" fill="#44403D"/>
<path d="M869.788 513.101C869.788 500.412 863.261 488.583 852.807 481.476C846.805 477.396 840.403 475.807 833.389 474.367C824.913 472.625 816.384 471.148 807.816 469.935C791.832 467.671 775.719 466.331 759.581 465.903L753.26 465.753C751.461 465.753 749.66 465.764 747.861 465.787C746.061 465.764 744.263 465.753 742.463 465.753L736.141 465.903C720.004 466.331 703.891 467.671 687.907 469.935C679.339 471.148 670.809 472.625 662.333 474.367C655.32 475.807 648.919 477.396 642.915 481.476C632.46 488.583 625.936 500.412 625.936 513.101C625.936 516.681 626.479 520.652 627.597 523.948C627.6 523.959 667.152 639.493 686.033 694.651C687.279 699.165 687.944 703.919 687.944 708.829C687.944 713.851 687.249 718.709 685.949 723.316L810.528 723.717C809.155 718.993 808.419 713.997 808.419 708.829C808.419 702.728 809.444 695.564 811.335 690.107H811.245C830.655 633.405 868.123 523.959 868.125 523.948C869.243 520.652 869.788 516.681 869.788 513.101Z" fill="#44403D"/>
<path d="M808.977 708.483H686.316C681.989 708.483 678.48 704.975 678.48 700.647C678.48 696.32 681.989 692.811 686.316 692.811H808.977C813.304 692.811 816.813 696.32 816.813 700.647C816.813 704.975 813.304 708.483 808.977 708.483Z" fill="#383533"/>
<path d="M722.36 478.415C712.557 479.016 702.777 479.977 693.052 481.355C685.531 482.42 678.04 483.717 670.6 485.245C664.44 486.511 658.82 487.905 653.548 491.488C644.371 497.728 638.641 508.115 638.641 519.256C638.641 522.4 639.117 525.885 640.099 528.779C640.1 528.783 644.304 541.063 650.481 559.108C654.444 519.192 683.913 486.797 722.36 478.415Z" fill="#565656"/>
<path d="M800.827 441.299H695.98C688.316 441.299 682.103 447.511 682.103 455.173C682.103 462.837 688.316 469.049 695.98 469.049H800.827V468.987C801.484 468.933 802.132 468.851 802.761 468.712C808.972 467.333 813.62 461.8 813.62 455.173C813.62 448.548 809.024 441.299 800.827 441.299Z" fill="#44403D"/>
<path d="M802.325 441.299C802.325 441.299 787.716 459.087 733.647 466.212L709.988 468.417C709.675 468.436 709.367 468.457 709.051 468.475H709.38L705.741 468.813H799.299C800.339 468.813 801.349 468.691 802.325 468.475C808.56 467.091 813.225 461.537 813.225 454.887C813.225 448.235 808.56 442.681 802.325 441.299Z" fill="#3F3B38"/>
<path d="M769.435 341.016L790.536 276.547L748.197 256.445L705.86 276.547L727.028 341.255L677.611 326.603V355.581V362.607V391.584L727.028 376.932L705.86 441.641L748.197 461.743L790.536 441.641L769.435 377.172L818.112 391.584V362.607V355.581V326.603L769.435 341.016Z" fill="#44403D"/>
<path d="M768.584 235.723C768.584 247.167 759.305 256.445 747.861 256.445C736.417 256.445 727.139 247.167 727.139 235.723C727.139 224.277 736.417 215 747.861 215C759.305 215 768.584 224.277 768.584 235.723Z" fill="#44403D"/>
<path d="M758.707 218.073C760.769 221.295 761.965 225.124 761.965 229.232C761.965 240.673 752.691 249.947 741.251 249.947C737.277 249.947 733.565 248.828 730.412 246.888C734.093 252.636 740.536 256.445 747.868 256.445C759.309 256.445 768.584 247.171 768.584 235.729C768.584 228.263 764.632 221.719 758.707 218.073Z" fill="#383533"/>
<path d="M730.781 237.649C730.781 227.551 738.969 219.363 749.068 219.363C754.972 219.363 760.22 222.161 763.564 226.503C760.405 221.021 754.488 217.331 747.707 217.331C737.608 217.331 729.421 225.517 729.421 235.616C729.421 239.813 730.835 243.679 733.212 246.764C731.667 244.081 730.781 240.968 730.781 237.649Z" fill="#565656"/>
<path d="M782.405 416.803C782.405 416.803 737.535 439.661 705.86 441.641C776.139 441.641 790.536 441.641 790.536 441.641L782.405 416.803Z" fill="#3F3B38"/>
<path d="M854.22 564.311C841.517 596.193 797.972 673.04 686.316 694.701L810.035 694.695C810.409 693.083 810.841 691.535 811.335 690.107H811.245C814.429 680.808 818.1 670.085 822.009 658.665H821.92C830.729 632.933 842.965 597.191 854.22 564.311Z" fill="#383533"/>
</svg>
