<svg width="1496" height="1496" viewBox="0 0 1496 1496" fill="none" xmlns="http://www.w3.org/2000/svg">
<path d="M893.465 962.648H602.54C595.243 962.648 590.647 970.512 594.232 976.871L615.228 1002.22H880.772L901.769 976.862C905.351 970.507 900.759 962.648 893.465 962.648Z" fill="#383533"/>
<path d="M956.737 1143.59H539.263C532.805 1143.59 526.753 1145.32 521.549 1148.36C511.055 1154.46 504 1165.83 504 1178.85H539.263H574.524H921.476H956.737H992C992 1159.38 976.213 1143.59 956.737 1143.59Z" fill="#383533"/>
<path d="M817.139 1178.85H504V1214.11H992V1178.85H817.139Z" fill="#44403D"/>
<path d="M950.353 1061.06C941.544 1055.85 933.033 1050.14 924.873 1043.97C916.739 1037.81 908.951 1031.19 901.561 1024.16C897.773 1020.55 894.091 1016.84 890.519 1013.02C889.128 1011.54 881.139 1002.47 881.139 1002.47H749.288H748H746.712H614.861C614.861 1002.47 606.872 1011.54 605.481 1013.02C601.909 1016.84 598.227 1020.55 594.439 1024.16C587.049 1031.19 579.261 1037.81 571.127 1043.97C562.967 1050.14 554.456 1055.85 545.647 1061.06C526.524 1072.37 504 1082.6 504 1108.33C504 1127.8 519.788 1143.59 539.263 1143.59H746.712H748H749.288H956.737C976.212 1143.59 992 1127.8 992 1108.33C992 1082.6 969.476 1072.37 950.353 1061.06Z" fill="#44403D"/>
<path d="M522.436 1106.79C522.436 1095.03 528.945 1084.81 538.549 1079.5C524.764 1080.02 513.743 1091.33 513.743 1105.25C513.743 1117.26 521.96 1127.32 533.071 1130.2C526.565 1124.48 522.436 1116.13 522.436 1106.79Z" fill="#565656"/>
<path d="M952.499 493.194C937.019 454.806 911.008 420.943 878.005 395.976C861.46 383.46 843.147 373.379 823.919 365.586C806.083 358.358 763.301 348.65 763.301 350.867V287.398C763.301 282.752 758.473 279.639 754.261 281.594C725.557 294.918 704.485 321.508 698.381 353.508L698.433 353.631L698.356 353.627C681.645 353.627 669.867 362.052 659.323 376.264L547.059 517.14C539.719 525.892 535.631 537.466 536.705 550.01C538.568 571.723 556.256 589.258 577.984 590.939C584.092 591.412 589.967 590.663 595.388 588.911C607.995 565.978 629.645 548.707 655.559 541.935C658.825 541.206 662.176 540.844 665.525 540.844C668.387 540.844 671.251 541.099 674.055 541.655C676.649 542.168 679.124 543.224 681.687 543.894C687.124 545.315 692.736 546.047 698.356 546.047C727.749 546.047 752.663 527.128 761.757 500.828L761.793 500.91C762.225 506.26 762.447 511.672 762.447 517.135C762.447 555.914 751.268 592.06 732.032 622.624C730.297 624.991 723.725 633.755 714.092 644.487C692.712 667.923 665.247 684.52 642.521 706.498C593.344 754.056 564.359 819.842 562.237 888.087L562.229 888.166C561.732 896.319 561.975 904.49 561.975 912.651C561.975 935.742 577.437 955.207 598.571 961.295C605.7 963.35 620.601 962.648 620.601 962.648C666.685 962.648 852.895 962.648 882.519 962.648C909.461 962.648 931.344 941.046 931.827 914.218C931.625 911.402 931.444 908.58 931.272 905.756C930.347 890.532 929.823 875.2 929.823 859.743C929.823 803.236 935.217 742.487 948.291 686.075C950.957 674.568 953.944 663.24 957.269 652.167C972.805 600.42 972.847 543.651 952.499 493.194Z" fill="#44403D"/>
<path d="M620.785 962.648H882.045C882.261 962.648 882.499 962.648 882.7 962.648C909.643 962.648 931.528 941.046 932.009 914.218C931.807 911.402 931.627 908.58 931.456 905.756C930.528 890.532 930.005 875.2 930.005 859.743C930.005 807.523 934.627 751.687 945.644 698.992C928.64 763.191 855.389 961.295 598.752 961.295C601.565 962.106 605.583 962.483 609.419 962.648H620.785Z" fill="#383533"/>
<path d="M729.084 350.714C733.552 350.714 763.368 350.714 763.368 350.714C763.368 342.512 763.368 287.398 763.368 287.398C763.368 287.398 724.617 350.714 729.084 350.714Z" fill="#3F3B38"/>
<path d="M598.76 464.512C576.18 492.847 554.561 519.976 554.563 519.978C548.371 527.362 544.921 537.126 545.829 547.707C546.967 560.962 555.112 572.34 566.464 578.171C566.415 576.354 566.384 574.53 566.384 572.7C566.384 532.736 578.301 495.562 598.76 464.512Z" fill="#565656"/>
</svg>
