<svg width="1496" height="1496" viewBox="0 0 1496 1496" fill="none" xmlns="http://www.w3.org/2000/svg">
<path d="M856.325 456.2C856.325 517.063 806.988 566.4 746.127 566.4C685.264 566.4 635.925 517.063 635.925 456.2C635.925 395.339 685.264 346 746.127 346C806.988 346 856.325 395.339 856.325 456.2Z" fill="#E1DCDC"/>
<path d="M855.515 583.493C825.681 565.313 790.652 554.825 753.16 554.825C715.667 554.825 680.639 565.313 650.805 583.493C642.281 588.688 645.984 601.827 655.967 601.827H753.16H850.353C860.335 601.827 864.037 588.688 855.515 583.493Z" fill="#E1DCDC"/>
<path d="M875.952 864.612H616.309C607.581 864.612 602.085 874.017 606.372 881.622L631.484 911.944H860.771L885.885 881.612C890.168 874.011 884.677 864.612 875.952 864.612Z" fill="#BAB6B4"/>
<path d="M951.251 1022.52C951.251 1006.95 942.815 993.351 930.263 986.044L929.992 985.897L930.263 985.667C898.128 968.001 874.043 945.739 860.135 911.945H746.127H632.119C618.209 945.739 594.124 968.001 561.989 985.667L562.259 985.897L561.989 986.044C549.437 993.351 541 1006.95 541 1022.52C541 1045.81 559.883 1064.69 583.175 1064.69H912.159V1064.54C934.008 1062.95 951.251 1044.77 951.251 1022.52Z" fill="#E1DCDC"/>
<path d="M912.159 1064.69H583.176C575.453 1064.69 568.215 1066.77 561.989 1070.39C549.437 1077.7 541 1091.3 541 1106.87H583.176H625.349H869.984H912.159H954.333C954.333 1083.58 935.452 1064.69 912.159 1064.69Z" fill="#BAB6B4"/>
<path d="M747.667 1106.87H541V1149.04H954.333V1106.87H747.667Z" fill="#E1DCDC"/>
<path d="M803.757 362.297C814.737 379.437 821.103 399.816 821.103 421.683C821.103 482.571 771.744 531.931 710.855 531.931C689.707 531.931 669.955 525.973 653.173 515.649C672.767 546.24 707.055 566.513 746.077 566.513C806.967 566.513 856.325 517.153 856.325 456.264C856.325 416.523 835.295 381.697 803.757 362.297Z" fill="#BAB6B4"/>
<path d="M655.14 466.483C655.14 412.733 698.713 369.161 752.463 369.161C783.879 369.161 811.813 384.052 829.608 407.156C812.803 377.983 781.305 358.341 745.219 358.341C691.469 358.341 647.897 401.913 647.897 455.663C647.897 477.995 655.424 498.565 668.073 514.988C659.847 500.709 655.14 484.145 655.14 466.483Z" fill="white"/>
<path d="M855.515 583.493C835.352 571.207 812.809 562.451 788.745 558.053L787.833 558.307L666.037 601.827H753.16H850.353C860.335 601.827 864.037 588.688 855.515 583.493Z" fill="#BAB6B4"/>
<path d="M853.225 864.612C821.297 792.352 802.419 710.009 799.415 625.559C801.037 612.189 812.405 601.827 826.211 601.827H798.941H693.311H666.037C679.845 601.827 691.212 612.189 692.835 625.559C689.783 710.681 670.445 791.596 637.757 864.612H853.225Z" fill="#E1DCDC"/>
<path d="M562.732 1020.96C562.732 1006.9 570.517 994.675 582.003 988.319C565.516 988.949 552.333 1002.48 552.333 1019.12C552.333 1033.49 562.161 1045.52 575.451 1048.96C567.669 1042.13 562.732 1032.13 562.732 1020.96Z" fill="white"/>
</svg>
