<svg width="1496" height="1496" viewBox="0 0 1496 1496" fill="none" xmlns="http://www.w3.org/2000/svg">
<path d="M809.464 725.237C809.464 832.332 831.84 939.073 872.173 1030.36H623.261C664.519 938.197 687.439 833.623 687.439 725.237H809.464Z" fill="#44403D"/>
<path d="M884.072 1029.95H611.369C604.527 1029.95 600.221 1037.32 603.58 1043.28L623.261 1067.05H872.173L891.856 1043.28C895.213 1037.32 890.909 1029.95 884.072 1029.95Z" fill="#383533"/>
<path d="M943.381 1199.56H552.055C546.001 1199.56 540.329 1201.19 535.451 1204.03C525.613 1209.75 519 1220.41 519 1232.61H552.055H585.107H910.328H943.381H976.435C976.435 1214.36 961.637 1199.56 943.381 1199.56Z" fill="#383533"/>
<path d="M812.525 1232.61H519V1265.67H976.435V1232.61H812.525Z" fill="#44403D"/>
<path d="M937.396 1122.2C929.14 1117.32 921.161 1111.97 913.513 1106.18C905.887 1100.41 898.588 1094.2 891.66 1087.61C888.109 1084.23 884.659 1080.75 881.309 1077.17C880.007 1075.78 872.519 1067.27 872.519 1067.27H748.925H747.717H746.511H622.917C622.917 1067.27 615.429 1075.78 614.127 1077.17C610.777 1080.75 607.325 1084.23 603.775 1087.61C596.848 1094.2 589.548 1100.41 581.923 1106.18C574.273 1111.97 566.296 1117.32 558.039 1122.2C540.113 1132.8 519 1142.39 519 1166.51C519 1184.76 533.8 1199.56 552.055 1199.56H746.511H747.717H748.925H943.381C961.636 1199.56 976.435 1184.76 976.435 1166.51C976.435 1142.39 955.323 1132.8 937.396 1122.2Z" fill="#44403D"/>
<path d="M536.283 1165.29C536.283 1154.27 542.384 1144.68 551.385 1139.7C538.464 1140.2 528.132 1150.8 528.132 1163.84C528.132 1175.1 535.836 1184.53 546.25 1187.23C540.152 1181.87 536.283 1174.04 536.283 1165.29Z" fill="#565656"/>
<path d="M837.428 679.048H658.857C646.103 679.048 635.763 689.388 635.763 702.143C635.763 714.833 646 725.124 658.667 725.228V725.237H836.577C838.304 725.237 839.98 725.033 841.597 724.676C851.936 722.381 859.672 713.172 859.672 702.143C859.672 691.113 852.609 679.048 837.428 679.048Z" fill="#383533"/>
<path d="M648.604 703.44C648.604 695.584 652.955 688.751 659.373 685.199C650.16 685.551 642.793 693.111 642.793 702.411C642.793 710.439 648.285 717.164 655.712 719.087C651.364 715.268 648.604 709.681 648.604 703.44Z" fill="#565656"/>
<path d="M827.903 646.247H667.532C658.396 646.247 650.991 653.653 650.991 662.788C650.991 671.924 658.396 679.329 667.532 679.329H827.903V679.255C828.685 679.192 829.459 679.092 830.208 678.927C837.612 677.284 843.153 670.688 843.153 662.788C843.153 654.889 837.673 646.247 827.903 646.247Z" fill="#44403D"/>
<path d="M849.671 382.36C849.671 438.668 804.024 484.313 747.717 484.313C691.409 484.313 645.764 438.668 645.764 382.36C645.764 326.053 691.409 280.407 747.717 280.407C804.024 280.407 849.671 326.053 849.671 382.36Z" fill="#383533"/>
<path d="M772.421 255.704C772.421 269.347 761.361 280.407 747.717 280.407C734.075 280.407 723.015 269.347 723.015 255.704C723.015 242.06 734.075 231 747.717 231C761.361 231 772.421 242.06 772.421 255.704Z" fill="#44403D"/>
<path d="M894.043 338.452C887.811 330.329 878.009 325.095 866.981 325.095C861.214 325.095 855.486 326.564 850.445 329.365C844.541 332.645 840.273 337.967 836.661 343.549C833.026 349.167 827.813 353.659 821.68 356.343C817.385 358.221 812.713 359.187 808.027 359.187C795.955 359.187 785.102 351.795 778.408 342.099C771.493 332.085 761.603 325.095 749.035 325.095C748.663 325.095 748.289 325.119 747.916 325.131C747.544 325.119 747.17 325.095 746.797 325.095C734.23 325.095 724.338 332.085 717.425 342.099C710.73 351.795 699.879 359.187 687.807 359.187C683.12 359.187 678.448 358.221 674.153 356.343C668.02 353.659 662.805 349.167 659.172 343.549C655.56 337.967 651.292 332.645 645.388 329.365C640.347 326.564 634.619 325.095 628.852 325.095C617.824 325.095 608.023 330.329 601.791 338.452C602.581 339.799 603.349 341.16 604.128 342.513C653.81 409.891 681.956 493.091 682.191 583.169H681.971C682.673 604.161 682.37 626.791 675.158 646.777H747.5H747.916H748.333H820.674C813.461 626.791 813.16 604.161 813.863 583.169C814.097 493.091 842.022 409.891 891.705 342.513C892.484 341.16 893.252 339.799 894.043 338.452Z" fill="#44403D"/>
<path d="M760.647 234.664C763.106 238.503 764.532 243.068 764.532 247.965C764.532 261.604 753.476 272.66 739.838 272.66C735.1 272.66 730.676 271.325 726.917 269.013C731.305 275.865 738.986 280.407 747.727 280.407C761.366 280.407 772.422 269.351 772.422 255.712C772.422 246.811 767.711 239.009 760.647 234.664Z" fill="#383533"/>
<path d="M727.358 258C727.358 245.961 737.117 236.201 749.156 236.201C756.193 236.201 762.451 239.537 766.436 244.712C762.672 238.177 755.617 233.777 747.533 233.777C735.495 233.777 725.735 243.537 725.735 255.577C725.735 260.579 727.422 265.187 730.255 268.865C728.412 265.667 727.358 261.957 727.358 258Z" fill="#565656"/>
<path d="M766.436 338.423C760.343 334.367 753.272 332.32 745.496 333.503C745.169 333.552 744.844 333.624 744.517 333.684C744.188 333.723 743.856 333.752 743.529 333.801C732.475 335.483 724.709 342.956 719.967 352.689C719.381 353.889 718.731 355.067 718.02 356.209C726.635 347.165 738.192 340.793 751.495 338.769C756.56 338 761.569 337.909 766.436 338.423Z" fill="#565656"/>
<path d="M886.31 338.423C880.215 334.367 873.146 332.32 865.37 333.503C865.043 333.552 864.718 333.624 864.391 333.684C864.062 333.723 863.73 333.752 863.402 333.801C852.348 335.483 844.582 342.956 839.839 352.689C839.255 353.889 838.604 355.067 837.894 356.209C846.507 347.165 858.064 340.793 871.367 338.769C876.432 338 881.443 337.909 886.31 338.423Z" fill="#565656"/>
<path d="M813.235 583.169C813.374 530.204 823.095 479.623 841.174 433.232C815.716 491.111 765.199 577.039 681.436 606.052L681.428 606.288H760.44H760.899H761.358H813.15C812.866 598.503 812.983 590.729 813.235 583.169Z" fill="#383533"/>
<path d="M814.408 622.857H681.429C676.271 622.857 672.088 618.675 672.088 613.515C672.088 608.356 676.271 604.175 681.429 604.175H814.408C819.567 604.175 823.749 608.356 823.749 613.515C823.749 618.675 819.567 622.857 814.408 622.857Z" fill="#383533"/>
</svg>
