<svg width="1496" height="1496" viewBox="0 0 1496 1496" fill="none" xmlns="http://www.w3.org/2000/svg">
<path d="M821.044 572.765C821.044 698.877 847.395 824.575 894.891 932.068H601.776C650.36 823.544 677.351 700.399 677.351 572.765H821.044Z" fill="#44403D"/>
<path d="M908.901 931.592H587.772C579.715 931.592 574.644 940.272 578.6 947.291L601.776 975.276H894.891L918.068 947.281C922.021 940.267 916.953 931.592 908.901 931.592Z" fill="#383533"/>
<path d="M978.743 1131.32H517.924C510.796 1131.32 504.117 1133.23 498.372 1136.58C486.787 1143.32 479 1155.87 479 1170.24H517.924H556.845H939.821H978.743H1017.67C1017.67 1148.75 1000.24 1131.32 978.743 1131.32Z" fill="#383533"/>
<path d="M824.651 1170.24H479V1209.16H1017.67V1170.24H824.651Z" fill="#44403D"/>
<path d="M971.695 1040.22C961.972 1034.47 952.577 1028.17 943.571 1021.35C934.591 1014.56 925.995 1007.25 917.837 999.488C913.656 995.509 909.592 991.409 905.648 987.196C904.115 985.556 895.296 975.543 895.296 975.543H749.755H748.333H746.912H601.371C601.371 975.543 592.552 985.556 591.019 987.196C587.075 991.409 583.011 995.509 578.829 999.488C570.672 1007.25 562.076 1014.56 553.096 1021.35C544.089 1028.17 534.695 1034.47 524.972 1040.22C503.861 1052.71 479 1063.99 479 1092.4C479 1113.89 496.427 1131.32 517.924 1131.32H746.912H748.333H749.755H978.743C1000.24 1131.32 1017.67 1113.89 1017.67 1092.4C1017.67 1063.99 992.805 1052.71 971.695 1040.22Z" fill="#44403D"/>
<path d="M842.758 553.761C842.758 544.46 836.232 536.693 827.512 534.759V534.283H673.388C662.63 534.283 653.91 543.004 653.91 553.761C653.91 564.52 662.63 573.24 673.388 573.24C674.843 573.24 676.258 573.068 677.622 572.765H819.046C820.41 573.068 821.824 573.24 823.279 573.24C824.735 573.24 826.148 573.068 827.512 572.765C836.232 570.832 842.758 563.064 842.758 553.761Z" fill="#383533"/>
<path d="M864.853 295.863L842.273 372.935H805.771L815.548 300.989C816.553 293.588 810.8 287 803.332 287H746.292H689.251C681.783 287 676.029 293.588 677.035 300.989L686.812 372.935H650.309L627.73 295.863C626.191 290.609 621.372 287 615.897 287H576.166C567.94 287 562.021 294.903 564.333 302.795L610.006 458.684C613.852 471.816 625.899 480.84 639.583 480.84H746.292H853C866.686 480.84 878.731 471.816 882.578 458.684L928.25 302.795C930.562 294.903 924.643 287 916.418 287H876.686C871.211 287 866.393 290.609 864.853 295.863Z" fill="#44403D"/>
<path d="M916.419 287C916.419 287 876.894 465.281 643.695 480.365C643.404 480.525 643.127 480.68 642.839 480.84H746.292H853.001C866.685 480.84 878.731 471.816 882.579 458.684L928.25 302.795C930.562 294.901 924.643 287 916.419 287Z" fill="#383533"/>
<path d="M604.983 296.247H587.877C579.652 296.247 573.733 304.148 576.045 312.041L586.225 346.785C585.708 343.801 585.424 340.739 585.424 337.607C585.424 320.944 593.041 306.061 604.983 296.247Z" fill="#565656"/>
<path d="M715.939 296.247H698.832C690.607 296.247 684.688 304.148 687.001 312.041L691.479 346.785C691.479 346.785 691.694 340.288 692.095 337.183C694.746 316.725 703.998 306.061 715.939 296.247Z" fill="#565656"/>
<path d="M499.351 1090.96C499.351 1077.98 506.536 1066.7 517.136 1060.83C501.92 1061.41 489.753 1073.9 489.753 1089.26C489.753 1102.52 498.824 1113.62 511.089 1116.8C503.908 1110.49 499.351 1101.27 499.351 1090.96Z" fill="#565656"/>
<path d="M851.934 480.84H641.651C626.631 480.84 614.455 493.016 614.455 508.036C614.455 522.98 626.511 535.099 641.427 535.221V535.232H850.932C852.964 535.232 854.938 534.992 856.842 534.571C869.018 531.868 878.128 521.024 878.128 508.036C878.128 495.048 869.81 480.84 851.934 480.84Z" fill="#44403D"/>
<path d="M630.157 509.563C630.157 500.312 635.28 492.265 642.839 488.083C631.989 488.499 623.313 497.4 623.313 508.352C623.313 517.804 629.781 525.724 638.527 527.988C633.407 523.491 630.157 516.913 630.157 509.563Z" fill="#565656"/>
</svg>
